STARTFONT 2.1
FONT -Monotype-Book Antiqua-Bold-I-Normal--17-120-100-100-P-86-iso8859-9
SIZE 12 100 100
FONTBOUNDINGBOX 20 21 -2 -5

STARTPROPERTIES 24
FOUNDRY "Monotype"
FAMILY_NAME "Book Antiqua"
WEIGHT_NAME "Bold"
SLANT "I"
SETWIDTH_NAME "Normal"
ADD_STYLE_NAME ""
PIXEL_SIZE 17
POINT_SIZE 120
RESOLUTION_X 100
RESOLUTION_Y 100
SPACING "P"
AVERAGE_WIDTH 86
CHARSET_REGISTRY "iso8859"
CHARSET_ENCODING "9"
FACE_NAME "Book Antiqua Bold Italic ISO Latin5"
_DEC_DEVICE_FONTNAMES "PS=bookantiqua-bit-lat5"
COPYRIGHT "Copyright (c) 1994 Monotype Typography Ltd."
CAP_HEIGHT 15
X_HEIGHT 10
WEIGHT 10
QUAD_WIDTH 10
DEFAULT_CHAR 160
FONT_DESCENT 5
FONT_ASCENT 17
ENDPROPERTIES

CHARS 191

STARTCHAR space
ENCODING 32
SWIDTH 250 0
DWIDTH 4 0
BBX 0 0 0 0
BITMAP
ENDCHAR

STARTCHAR exclam
ENCODING 33
SWIDTH 333 0
DWIDTH 6 0
BBX 4 13 1 0
BITMAP
10
30
30
30
20
60
60
60
40
40
00
C0
C0
ENDCHAR

STARTCHAR quotedbl
ENCODING 34
SWIDTH 500 0
DWIDTH 9 0
BBX 5 5 2 7
BITMAP
D8
D8
D8
48
48
ENDCHAR

STARTCHAR numbersign
ENCODING 35
SWIDTH 606 0
DWIDTH 10 0
BBX 10 12 0 0
BITMAP
1980
1980
1980
7FC0
3300
3300
3300
3300
FF80
6600
6600
6600
ENDCHAR

STARTCHAR dollar
ENCODING 36
SWIDTH 500 0
DWIDTH 9 0
BBX 9 15 0 -2
BITMAP
0400
1F80
2480
6480
6400
7400
3C00
1E00
0F00
0B00
8B00
8A00
FC00
1000
1000
ENDCHAR

STARTCHAR percent
ENCODING 37
SWIDTH 889 0
DWIDTH 15 0
BBX 13 12 1 0
BITMAP
3020
5840
C840
8880
9900
D130
6258
04C8
0488
0898
10D0
1060
ENDCHAR

STARTCHAR ampersand
ENCODING 38
SWIDTH 833 0
DWIDTH 14 0
BBX 13 12 1 0
BITMAP
0F80
1100
3100
3008
3C08
1870
61E0
C260
C060
C040
6180
3E00
ENDCHAR

STARTCHAR quoteright
ENCODING 39
SWIDTH 278 0
DWIDTH 5 0
BBX 3 4 1 9
BITMAP
60
60
40
80
ENDCHAR

STARTCHAR parenleft
ENCODING 40
SWIDTH 333 0
DWIDTH 6 0
BBX 6 18 1 -5
BITMAP
0C
10
30
60
60
60
C0
C0
C0
C0
C0
C0
C0
C0
C0
40
60
20
ENDCHAR

STARTCHAR parenright
ENCODING 41
SWIDTH 333 0
DWIDTH 6 0
BBX 6 18 -1 -5
BITMAP
10
18
08
0C
0C
0C
0C
0C
0C
0C
0C
0C
18
18
18
30
20
C0
ENDCHAR

STARTCHAR asterisk
ENCODING 42
SWIDTH 444 0
DWIDTH 8 0
BBX 5 6 2 7
BITMAP
10
B0
60
78
A0
B0
ENDCHAR

STARTCHAR plus
ENCODING 43
SWIDTH 606 0
DWIDTH 10 0
BBX 8 8 1 2
BITMAP
18
18
18
FF
FF
18
18
18
ENDCHAR

STARTCHAR comma
ENCODING 44
SWIDTH 250 0
DWIDTH 4 0
BBX 3 4 0 -2
BITMAP
60
60
40
80
ENDCHAR

STARTCHAR minus
ENCODING 45
SWIDTH 606 0
DWIDTH 10 0
BBX 8 2 1 5
BITMAP
FF
FF
ENDCHAR

STARTCHAR period
ENCODING 46
SWIDTH 250 0
DWIDTH 4 0
BBX 2 2 1 0
BITMAP
C0
C0
ENDCHAR

STARTCHAR slash
ENCODING 47
SWIDTH 315 0
DWIDTH 5 0
BBX 10 18 -2 -5
BITMAP
00C0
00C0
0180
0180
0300
0300
0600
0600
0C00
0C00
1800
1800
3000
3000
6000
6000
C000
C000
ENDCHAR

STARTCHAR zero
ENCODING 48
SWIDTH 500 0
DWIDTH 9 0
BBX 8 12 1 0
BITMAP
1C
32
63
63
C3
C3
C3
C3
C6
C6
4C
38
ENDCHAR

STARTCHAR one
ENCODING 49
SWIDTH 500 0
DWIDTH 9 0
BBX 6 12 1 0
BITMAP
04
1C
6C
0C
18
18
18
18
30
30
30
FC
ENDCHAR

STARTCHAR two
ENCODING 50
SWIDTH 500 0
DWIDTH 9 0
BBX 8 12 1 0
BITMAP
1E
27
43
03
03
06
04
08
10
20
7E
FC
ENDCHAR

STARTCHAR three
ENCODING 51
SWIDTH 500 0
DWIDTH 9 0
BBX 8 12 1 0
BITMAP
1E
23
43
03
06
1C
06
06
06
06
84
78
ENDCHAR

STARTCHAR four
ENCODING 52
SWIDTH 500 0
DWIDTH 9 0
BBX 8 12 1 0
BITMAP
02
06
0E
16
16
2C
4C
8C
FF
18
18
7E
ENDCHAR

STARTCHAR five
ENCODING 53
SWIDTH 500 0
DWIDTH 9 0
BBX 7 12 1 0
BITMAP
3E
3C
20
20
40
78
4C
06
06
06
8C
78
ENDCHAR

STARTCHAR six
ENCODING 54
SWIDTH 500 0
DWIDTH 9 0
BBX 8 12 1 0
BITMAP
06
19
20
60
40
F8
E4
C6
C6
C6
C4
78
ENDCHAR

STARTCHAR seven
ENCODING 55
SWIDTH 500 0
DWIDTH 9 0
BBX 7 12 1 0
BITMAP
7E
FE
06
0C
08
18
10
30
20
60
60
40
ENDCHAR

STARTCHAR eight
ENCODING 56
SWIDTH 500 0
DWIDTH 9 0
BBX 7 12 1 0
BITMAP
1C
26
62
66
74
38
2C
46
C2
C6
CC
78
ENDCHAR

STARTCHAR nine
ENCODING 57
SWIDTH 500 0
DWIDTH 9 0
BBX 8 12 1 0
BITMAP
1E
23
63
63
63
27
1F
02
06
04
98
60
ENDCHAR

STARTCHAR colon
ENCODING 58
SWIDTH 250 0
DWIDTH 4 0
BBX 3 8 1 0
BITMAP
60
60
00
00
00
00
C0
C0
ENDCHAR

STARTCHAR semicolon
ENCODING 59
SWIDTH 250 0
DWIDTH 4 0
BBX 4 10 0 -2
BITMAP
30
30
00
00
00
00
60
60
40
80
ENDCHAR

STARTCHAR less
ENCODING 60
SWIDTH 606 0
DWIDTH 10 0
BBX 8 8 1 2
BITMAP
03
0F
3C
F0
F0
3C
0F
03
ENDCHAR

STARTCHAR equal
ENCODING 61
SWIDTH 606 0
DWIDTH 10 0
BBX 8 6 1 3
BITMAP
FF
FF
00
00
FF
FF
ENDCHAR

STARTCHAR greater
ENCODING 62
SWIDTH 606 0
DWIDTH 10 0
BBX 8 8 2 2
BITMAP
C0
F0
3C
0F
0F
3C
F0
C0
ENDCHAR

STARTCHAR question
ENCODING 63
SWIDTH 444 0
DWIDTH 8 0
BBX 6 13 1 0
BITMAP
78
9C
8C
0C
0C
18
30
60
40
40
00
C0
C0
ENDCHAR

STARTCHAR at
ENCODING 64
SWIDTH 833 0
DWIDTH 14 0
BBX 12 13 1 -1
BITMAP
07C0
1820
2010
4690
4D90
9990
9910
9920
9B60
4D80
4020
30C0
0F00
ENDCHAR

STARTCHAR A
ENCODING 65
SWIDTH 722 0
DWIDTH 12 0
BBX 13 12 -1 0
BITMAP
0080
0180
0180
0380
02C0
04C0
0FC0
08C0
1060
1060
2060
F9F8
ENDCHAR

STARTCHAR B
ENCODING 66
SWIDTH 667 0
DWIDTH 11 0
BBX 12 12 -1 0
BITMAP
3FE0
0C30
0C30
0C30
1860
1F80
18C0
1860
3060
3060
30C0
FF00
ENDCHAR

STARTCHAR C
ENCODING 67
SWIDTH 685 0
DWIDTH 12 0
BBX 10 12 1 0
BITMAP
07C0
1840
3040
6000
6000
C000
C000
C000
C000
C000
6080
1F00
ENDCHAR

STARTCHAR D
ENCODING 68
SWIDTH 778 0
DWIDTH 13 0
BBX 13 12 -1 0
BITMAP
3FC0
0C30
0C18
0C18
1818
1818
1818
1818
3030
3030
3060
FF80
ENDCHAR

STARTCHAR E
ENCODING 69
SWIDTH 611 0
DWIDTH 10 0
BBX 11 12 -1 0
BITMAP
3FE0
0C20
0C20
0C00
1800
1F80
1800
1800
3000
3040
3080
FF80
ENDCHAR

STARTCHAR F
ENCODING 70
SWIDTH 556 0
DWIDTH 9 0
BBX 11 12 -1 0
BITMAP
3FE0
0C20
0C20
0C00
1800
1F80
1800
1800
3000
3000
3000
FC00
ENDCHAR

STARTCHAR G
ENCODING 71
SWIDTH 778 0
DWIDTH 13 0
BBX 11 12 1 0
BITMAP
07E0
1820
3020
6000
6000
C000
C000
C3E0
C0C0
C0C0
6080
1F00
ENDCHAR

STARTCHAR H
ENCODING 72
SWIDTH 778 0
DWIDTH 13 0
BBX 15 12 -1 0
BITMAP
3F7E
0C18
0C18
0C18
1830
1FF0
1830
1830
3060
3060
3060
FDF8
ENDCHAR

STARTCHAR I
ENCODING 73
SWIDTH 389 0
DWIDTH 7 0
BBX 8 12 0 0
BITMAP
3F
0C
0C
0C
18
18
18
18
30
30
30
FC
ENDCHAR

STARTCHAR J
ENCODING 74
SWIDTH 389 0
DWIDTH 7 0
BBX 9 16 -1 -4
BITMAP
1F80
0600
0600
0600
0C00
0C00
0C00
0C00
1800
1800
1800
3000
3000
3000
2000
C000
ENDCHAR

STARTCHAR K
ENCODING 75
SWIDTH 722 0
DWIDTH 12 0
BBX 14 12 -1 0
BITMAP
3F1C
0C30
0C60
0CC0
1980
1F00
1F00
1B00
3180
30C0
3060
FC70
ENDCHAR

STARTCHAR L
ENCODING 76
SWIDTH 611 0
DWIDTH 10 0
BBX 9 12 1 0
BITMAP
3E00
1800
1800
1800
3000
3000
3000
3000
6000
6080
6100
FF00
ENDCHAR

STARTCHAR M
ENCODING 77
SWIDTH 944 0
DWIDTH 16 0
BBX 18 12 -1 0
BITMAP
3C07C0
0C0700
0E0B00
160B00
161600
162600
132600
134600
23CC00
218C00
218C00
F93F00
ENDCHAR

STARTCHAR N
ENCODING 78
SWIDTH 778 0
DWIDTH 13 0
BBX 15 12 -1 0
BITMAP
3C3E
0C08
0E08
0E08
1710
1310
1190
11D0
20E0
2060
2060
F820
ENDCHAR

STARTCHAR O
ENCODING 79
SWIDTH 833 0
DWIDTH 14 0
BBX 12 12 1 0
BITMAP
07C0
1860
3020
6030
6030
C030
C030
C060
C060
40C0
6180
3E00
ENDCHAR

STARTCHAR P
ENCODING 80
SWIDTH 667 0
DWIDTH 11 0
BBX 12 12 -1 0
BITMAP
3FC0
0C60
0C30
0C30
1830
1860
1BC0
1800
3000
3000
3000
FC00
ENDCHAR

STARTCHAR Q
ENCODING 81
SWIDTH 833 0
DWIDTH 14 0
BBX 12 15 1 -3
BITMAP
07C0
1860
3020
6030
6030
C030
C030
C060
C060
40C0
6180
3E00
3C00
4710
01E0
ENDCHAR

STARTCHAR R
ENCODING 82
SWIDTH 722 0
DWIDTH 12 0
BBX 13 12 -1 0
BITMAP
3FE0
0C70
0C30
0C30
1860
1B80
1980
18C0
30C0
3060
3030
FC38
ENDCHAR

STARTCHAR S
ENCODING 83
SWIDTH 556 0
DWIDTH 9 0
BBX 9 12 0 0
BITMAP
1F80
2080
6080
6000
7000
3C00
1E00
0700
0300
8300
8200
FC00
ENDCHAR

STARTCHAR T
ENCODING 84
SWIDTH 611 0
DWIDTH 10 0
BBX 11 12 0 0
BITMAP
7FE0
4620
8620
0600
0C00
0C00
0C00
0C00
1800
1800
1800
7E00
ENDCHAR

STARTCHAR U
ENCODING 85
SWIDTH 778 0
DWIDTH 13 0
BBX 14 12 1 0
BITMAP
F0FC
3030
3030
3030
6060
6060
6060
C060
C0C0
C1C0
62C0
3CF0
ENDCHAR

STARTCHAR V
ENCODING 86
SWIDTH 667 0
DWIDTH 11 0
BBX 13 12 0 0
BITMAP
FCF8
3020
3040
3040
3080
3100
3100
3200
3400
3400
3800
3000
ENDCHAR

STARTCHAR W
ENCODING 87
SWIDTH 1000 0
DWIDTH 17 0
BBX 18 12 0 0
BITMAP
FC67C0
30E100
30E100
316200
316200
326400
326400
346800
346800
387000
387000
306000
ENDCHAR

STARTCHAR X
ENCODING 88
SWIDTH 722 0
DWIDTH 12 0
BBX 14 12 -1 0
BITMAP
3F7C
0C10
0620
0640
0380
0300
0380
0580
08C0
18C0
3060
FDF8
ENDCHAR

STARTCHAR Y
ENCODING 89
SWIDTH 611 0
DWIDTH 10 0
BBX 11 12 0 0
BITMAP
7060
9840
1880
0D00
0D00
0E00
0C00
0C00
1800
1800
1800
7E00
ENDCHAR

STARTCHAR Z
ENCODING 90
SWIDTH 667 0
DWIDTH 11 0
BBX 11 12 0 0
BITMAP
3FE0
2060
40C0
0180
0300
0600
0C00
1800
3000
6020
C040
FFC0
ENDCHAR

STARTCHAR bracketleft
ENCODING 91
SWIDTH 333 0
DWIDTH 6 0
BBX 6 18 0 -5
BITMAP
3C
30
30
30
30
30
60
60
60
60
60
60
C0
C0
C0
C0
C0
F0
ENDCHAR

STARTCHAR backslash
ENCODING 92
SWIDTH 606 0
DWIDTH 10 0
BBX 10 18 0 -5
BITMAP
C000
C000
6000
6000
3000
3000
1800
1800
0C00
0C00
0600
0600
0300
0300
0180
0180
00C0
00C0
ENDCHAR

STARTCHAR bracketright
ENCODING 93
SWIDTH 333 0
DWIDTH 6 0
BBX 6 18 0 -5
BITMAP
3C
0C
0C
0C
0C
0C
18
18
18
18
18
18
30
30
30
30
30
F0
ENDCHAR

STARTCHAR asciicircum
ENCODING 94
SWIDTH 606 0
DWIDTH 10 0
BBX 8 7 1 5
BITMAP
18
18
3C
3C
66
66
C3
ENDCHAR

STARTCHAR underscore
ENCODING 95
SWIDTH 500 0
DWIDTH 9 0
BBX 9 1 0 -2
BITMAP
FF80
ENDCHAR

STARTCHAR quoteleft
ENCODING 96
SWIDTH 278 0
DWIDTH 5 0
BBX 3 4 2 9
BITMAP
20
40
C0
C0
ENDCHAR

STARTCHAR a
ENCODING 97
SWIDTH 556 0
DWIDTH 9 0
BBX 8 8 1 0
BITMAP
1B
27
66
46
CE
CC
D5
62
ENDCHAR

STARTCHAR b
ENCODING 98
SWIDTH 537 0
DWIDTH 9 0
BBX 8 13 1 0
BITMAP
10
70
30
30
60
6E
73
63
E3
C3
C6
C4
78
ENDCHAR

STARTCHAR c
ENCODING 99
SWIDTH 444 0
DWIDTH 8 0
BBX 7 8 1 0
BITMAP
1E
22
62
C0
C0
C0
C4
78
ENDCHAR

STARTCHAR d
ENCODING 100
SWIDTH 556 0
DWIDTH 10 0
BBX 9 13 1 0
BITMAP
0080
0380
0180
0180
0300
1B00
2700
6300
C600
C600
CE00
D680
6300
ENDCHAR

STARTCHAR e
ENCODING 101
SWIDTH 444 0
DWIDTH 8 0
BBX 7 8 1 0
BITMAP
1C
26
66
6C
F0
C0
C4
78
ENDCHAR

STARTCHAR f
ENCODING 102
SWIDTH 333 0
DWIDTH 6 0
BBX 9 17 -1 -4
BITMAP
0180
0280
0600
0600
0C00
3F00
0C00
0C00
0C00
1800
1800
1800
1000
3000
3000
A000
C000
ENDCHAR

STARTCHAR g
ENCODING 103
SWIDTH 500 0
DWIDTH 9 0
BBX 10 13 0 -5
BITMAP
0740
1980
3180
3180
3300
1C00
0800
1C00
6200
C300
C300
C600
7800
ENDCHAR

STARTCHAR h
ENCODING 104
SWIDTH 556 0
DWIDTH 9 0
BBX 9 13 0 0
BITMAP
1000
7000
3000
3000
3000
6600
6B00
7300
7300
6600
C600
C680
C300
ENDCHAR

STARTCHAR i
ENCODING 105
SWIDTH 333 0
DWIDTH 5 0
BBX 5 12 1 0
BITMAP
18
18
00
00
20
E0
60
60
C0
C0
D0
60
ENDCHAR

STARTCHAR j
ENCODING 106
SWIDTH 333 0
DWIDTH 6 0
BBX 7 17 -1 -5
BITMAP
06
06
00
00
04
1C
0C
0C
0C
0C
18
18
18
10
30
A0
C0
ENDCHAR

STARTCHAR k
ENCODING 107
SWIDTH 556 0
DWIDTH 9 0
BBX 8 13 1 0
BITMAP
10
70
30
30
30
63
64
68
78
6C
CC
CD
C6
ENDCHAR

STARTCHAR l
ENCODING 108
SWIDTH 333 0
DWIDTH 5 0
BBX 4 13 1 0
BITMAP
10
70
30
30
30
60
60
60
60
C0
C0
D0
60
ENDCHAR

STARTCHAR m
ENCODING 109
SWIDTH 833 0
DWIDTH 14 0
BBX 12 8 1 0
BITMAP
2EC0
F760
6660
6660
CCC0
CCC0
CCD0
CC60
ENDCHAR

STARTCHAR n
ENCODING 110
SWIDTH 556 0
DWIDTH 9 0
BBX 8 8 1 0
BITMAP
2C
F6
66
66
CC
CC
CD
C6
ENDCHAR

STARTCHAR o
ENCODING 111
SWIDTH 556 0
DWIDTH 9 0
BBX 8 8 1 0
BITMAP
1E
23
63
C3
C3
C6
C4
78
ENDCHAR

STARTCHAR p
ENCODING 112
SWIDTH 556 0
DWIDTH 9 0
BBX 9 12 0 -4
BITMAP
1700
7980
3180
3180
3180
6300
6600
7800
C000
C000
C000
8000
ENDCHAR

STARTCHAR q
ENCODING 113
SWIDTH 537 0
DWIDTH 9 0
BBX 8 13 1 -5
BITMAP
1B
37
63
63
C6
CE
D6
66
0C
0C
0C
0C
08
ENDCHAR

STARTCHAR r
ENCODING 114
SWIDTH 389 0
DWIDTH 7 0
BBX 6 8 1 0
BITMAP
2C
FC
60
60
60
C0
C0
C0
ENDCHAR

STARTCHAR s
ENCODING 115
SWIDTH 444 0
DWIDTH 8 0
BBX 7 8 1 0
BITMAP
1E
22
60
78
3C
0C
88
F0
ENDCHAR

STARTCHAR t
ENCODING 116
SWIDTH 389 0
DWIDTH 7 0
BBX 6 11 1 0
BITMAP
10
30
30
FC
60
60
60
C0
C0
C8
70
ENDCHAR

STARTCHAR u
ENCODING 117
SWIDTH 556 0
DWIDTH 9 0
BBX 9 8 0 0
BITMAP
6300
B300
3300
3300
6600
6600
6E80
3700
ENDCHAR

STARTCHAR v
ENCODING 118
SWIDTH 556 0
DWIDTH 9 0
BBX 8 8 1 0
BITMAP
7A
9B
31
31
62
62
64
38
ENDCHAR

STARTCHAR w
ENCODING 119
SWIDTH 833 0
DWIDTH 14 0
BBX 13 8 1 0
BITMAP
7990
9998
3188
3308
6308
6710
6B20
31C0
ENDCHAR

STARTCHAR x
ENCODING 120
SWIDTH 500 0
DWIDTH 9 0
BBX 9 8 0 0
BITMAP
3180
4A80
0C00
0C00
1800
1800
A900
C600
ENDCHAR

STARTCHAR y
ENCODING 121
SWIDTH 556 0
DWIDTH 9 0
BBX 9 13 0 -5
BITMAP
6180
B180
3300
3300
6300
6600
6E00
3600
0400
0C00
8800
9000
6000
ENDCHAR

STARTCHAR z
ENCODING 122
SWIDTH 500 0
DWIDTH 9 0
BBX 8 8 1 0
BITMAP
1D
3E
44
08
10
21
7E
DC
ENDCHAR

STARTCHAR braceleft
ENCODING 123
SWIDTH 333 0
DWIDTH 6 0
BBX 8 18 -1 -5
BITMAP
07
0C
0C
0C
18
18
30
20
C0
60
30
30
30
60
60
60
60
38
ENDCHAR

STARTCHAR bar
ENCODING 124
SWIDTH 606 0
DWIDTH 10 0
BBX 2 18 4 -5
BITMAP
C0
C0
C0
C0
C0
C0
C0
C0
C0
C0
C0
C0
C0
C0
C0
C0
C0
C0
ENDCHAR

STARTCHAR braceright
ENCODING 125
SWIDTH 333 0
DWIDTH 6 0
BBX 8 18 -1 -5
BITMAP
1C
06
06
06
06
0C
0C
0C
06
03
04
0C
18
18
30
30
30
E0
ENDCHAR

STARTCHAR asciitilde
ENCODING 126
SWIDTH 606 0
DWIDTH 10 0
BBX 9 4 1 4
BITMAP
6080
F880
9F80
8700
ENDCHAR

STARTCHAR space
ENCODING 160
SWIDTH 250 0
DWIDTH 6 0
BBX 0 0 0 0
BITMAP
ENDCHAR

STARTCHAR exclamdown
ENCODING 161
SWIDTH 333 0
DWIDTH 6 0
BBX 4 13 2 -5
BITMAP
30
30
00
20
20
60
60
60
40
C0
C0
C0
80
ENDCHAR

STARTCHAR cent
ENCODING 162
SWIDTH 500 0
DWIDTH 9 0
BBX 7 11 1 0
BITMAP
04
1E
2A
6A
C8
D0
D0
D4
78
20
20
ENDCHAR

STARTCHAR sterling
ENCODING 163
SWIDTH 500 0
DWIDTH 9 0
BBX 8 12 0 0
BITMAP
0F
19
18
18
18
FE
30
30
30
31
79
DE
ENDCHAR

STARTCHAR currency
ENCODING 164
SWIDTH 606 0
DWIDTH 10 0
BBX 9 9 1 2
BITMAP
5D00
FF80
6300
C180
C180
C180
6300
FF80
5D00
ENDCHAR

STARTCHAR yen
ENCODING 165
SWIDTH 500 0
DWIDTH 10 0
BBX 11 12 0 0
BITMAP
7060
9840
1880
0D00
0D00
0E00
3F80
0C00
1800
7E00
1800
7E00
ENDCHAR

STARTCHAR brokenbar
ENCODING 166
SWIDTH 606 0
DWIDTH 10 0
BBX 2 18 4 -5
BITMAP
C0
C0
C0
C0
C0
C0
C0
C0
00
00
C0
C0
C0
C0
C0
C0
C0
C0
ENDCHAR

STARTCHAR section
ENCODING 167
SWIDTH 556 0
DWIDTH 9 0
BBX 7 18 1 -5
BITMAP
1E
22
60
60
70
70
D8
CC
CC
C6
66
66
36
1C
0C
0C
88
F0
ENDCHAR

STARTCHAR dieresis
ENCODING 168
SWIDTH 333 0
DWIDTH 6 0
BBX 6 2 1 9
BITMAP
CC
CC
ENDCHAR

STARTCHAR copyright
ENCODING 169
SWIDTH 747 0
DWIDTH 13 0
BBX 12 12 1 0
BITMAP
0F00
30C0
4FA0
58A0
B010
B010
B010
B010
58A0
4F20
30C0
0F00
ENDCHAR

STARTCHAR ordfeminine
ENCODING 170
SWIDTH 333 0
DWIDTH 6 0
BBX 5 6 1 7
BITMAP
38
58
D8
D8
F0
58
ENDCHAR

STARTCHAR guillemotleft
ENCODING 171
SWIDTH 500 0
DWIDTH 9 0
BBX 6 6 2 1
BITMAP
24
48
D8
D8
48
48
ENDCHAR

STARTCHAR logicalnot
ENCODING 172
SWIDTH 606 0
DWIDTH 10 0
BBX 9 5 1 3
BITMAP
FF80
FF80
0180
0180
0180
ENDCHAR

STARTCHAR hyphen
ENCODING 173
SWIDTH 389 0
DWIDTH 7 0
BBX 6 2 1 3
BITMAP
FC
FC
ENDCHAR

STARTCHAR registered
ENCODING 174
SWIDTH 747 0
DWIDTH 13 0
BBX 12 12 1 0
BITMAP
0F00
30C0
5F20
59A0
9990
9F10
9B10
9990
59A0
4020
30C0
0F00
ENDCHAR

STARTCHAR macron
ENCODING 175
SWIDTH 333 0
DWIDTH 6 0
BBX 6 1 1 9
BITMAP
FC
ENDCHAR

STARTCHAR degree
ENCODING 176
SWIDTH 396 0
DWIDTH 7 0
BBX 5 5 2 7
BITMAP
70
D8
D8
D8
70
ENDCHAR

STARTCHAR plusminus
ENCODING 177
SWIDTH 606 0
DWIDTH 10 0
BBX 8 11 1 0
BITMAP
18
18
18
FF
FF
18
18
18
00
FF
FF
ENDCHAR

STARTCHAR twosuperior
ENCODING 178
SWIDTH 361 0
DWIDTH 6 0
BBX 5 7 0 5
BITMAP
70
18
18
30
20
40
F0
ENDCHAR

STARTCHAR threesuperior
ENCODING 179
SWIDTH 361 0
DWIDTH 6 0
BBX 5 7 1 5
BITMAP
30
58
18
70
30
B0
60
ENDCHAR

STARTCHAR acute
ENCODING 180
SWIDTH 333 0
DWIDTH 6 0
BBX 3 2 2 9
BITMAP
60
C0
ENDCHAR

STARTCHAR mu
ENCODING 181
SWIDTH 588 0
DWIDTH 10 0
BBX 10 11 0 -3
BITMAP
3180
3180
3180
3180
6300
6300
6700
DDC0
C000
C000
C000
ENDCHAR

STARTCHAR paragraph
ENCODING 182
SWIDTH 556 0
DWIDTH 9 0
BBX 10 17 0 -5
BITMAP
3FC0
7D00
FD00
FD00
FD00
FD00
7D00
3D00
0500
0500
0500
0500
0500
0500
0500
0500
0500
ENDCHAR

STARTCHAR periodcentered
ENCODING 183
SWIDTH 250 0
DWIDTH 4 0
BBX 2 2 1 4
BITMAP
C0
C0
ENDCHAR

STARTCHAR cedilla
ENCODING 184
SWIDTH 333 0
DWIDTH 6 0
BBX 4 3 0 -3
BITMAP
60
30
E0
ENDCHAR

STARTCHAR onesuperior
ENCODING 185
SWIDTH 361 0
DWIDTH 6 0
BBX 4 7 1 5
BITMAP
10
70
30
30
60
60
F0
ENDCHAR

STARTCHAR ordmasculine
ENCODING 186
SWIDTH 333 0
DWIDTH 6 0
BBX 5 5 1 8
BITMAP
30
58
D8
D0
60
ENDCHAR

STARTCHAR guillemotright
ENCODING 187
SWIDTH 500 0
DWIDTH 9 0
BBX 7 6 1 1
BITMAP
44
44
66
66
44
88
ENDCHAR

STARTCHAR onequarter
ENCODING 188
SWIDTH 889 0
DWIDTH 15 0
BBX 14 12 1 0
BITMAP
1020
7040
3040
3080
6100
610C
F21C
042C
0458
08FC
1018
103C
ENDCHAR

STARTCHAR onehalf
ENCODING 189
SWIDTH 889 0
DWIDTH 15 0
BBX 13 12 1 0
BITMAP
1020
7020
3040
3080
6080
6170
F218
0218
0430
0820
0840
10F0
ENDCHAR

STARTCHAR threequarters
ENCODING 190
SWIDTH 889 0
DWIDTH 15 0
BBX 13 12 1 0
BITMAP
3020
5840
1840
7080
3100
B118
6238
0458
04B0
09F8
1030
1078
ENDCHAR

STARTCHAR questiondown
ENCODING 191
SWIDTH 444 0
DWIDTH 8 0
BBX 6 13 1 -5
BITMAP
0C
0C
00
08
08
18
30
60
C0
C0
C4
E4
78
ENDCHAR

STARTCHAR Agrave
ENCODING 192
SWIDTH 722 0
DWIDTH 12 0
BBX 13 15 -1 0
BITMAP
0300
0180
0000
0080
0180
0180
0380
02C0
04C0
0FC0
08C0
1060
1060
2060
F9F8
ENDCHAR

STARTCHAR Aacute
ENCODING 193
SWIDTH 722 0
DWIDTH 12 0
BBX 13 15 -1 0
BITMAP
0060
00C0
0000
0080
0180
0180
0380
02C0
04C0
0FC0
08C0
1060
1060
2060
F9F8
ENDCHAR

STARTCHAR Acircumflex
ENCODING 194
SWIDTH 722 0
DWIDTH 12 0
BBX 13 15 -1 0
BITMAP
01C0
0360
0000
0080
0180
0180
0380
02C0
04C0
0FC0
08C0
1060
1060
2060
F9F8
ENDCHAR

STARTCHAR Atilde
ENCODING 195
SWIDTH 722 0
DWIDTH 12 0
BBX 13 15 -1 0
BITMAP
01A0
02C0
0000
0080
0180
0180
0380
02C0
04C0
0FC0
08C0
1060
1060
2060
F9F8
ENDCHAR

STARTCHAR Adieresis
ENCODING 196
SWIDTH 722 0
DWIDTH 12 0
BBX 13 15 -1 0
BITMAP
0330
0330
0000
0080
0180
0180
0380
02C0
04C0
0FC0
08C0
1060
1060
2060
F9F8
ENDCHAR

STARTCHAR Aring
ENCODING 197
SWIDTH 722 0
DWIDTH 12 0
BBX 13 16 -1 0
BITMAP
00C0
0120
00C0
0000
0080
0180
0180
0380
02C0
04C0
0FC0
08C0
1060
1060
2060
F9F8
ENDCHAR

STARTCHAR AE
ENCODING 198
SWIDTH 944 0
DWIDTH 16 0
BBX 17 12 -1 0
BITMAP
03FF80
00B080
013080
023000
026000
047E00
0FE000
086000
10C000
10C100
20C200
FBFE00
ENDCHAR

STARTCHAR Ccedilla
ENCODING 199
SWIDTH 685 0
DWIDTH 12 0
BBX 10 15 1 -3
BITMAP
07C0
1840
3040
6000
6000
C000
C000
C000
C000
C000
6080
1F00
0C00
0600
1C00
ENDCHAR

STARTCHAR Egrave
ENCODING 200
SWIDTH 611 0
DWIDTH 10 0
BBX 11 15 -1 0
BITMAP
0600
0300
0000
3FE0
0C20
0C20
0C00
1800
1F80
1800
1800
3000
3040
3080
FF80
ENDCHAR

STARTCHAR Eacute
ENCODING 201
SWIDTH 611 0
DWIDTH 10 0
BBX 11 15 -1 0
BITMAP
0180
0300
0000
3FE0
0C20
0C20
0C00
1800
1F80
1800
1800
3000
3040
3080
FF80
ENDCHAR

STARTCHAR Ecircumflex
ENCODING 202
SWIDTH 611 0
DWIDTH 10 0
BBX 11 15 -1 0
BITMAP
0380
06C0
0000
3FE0
0C20
0C20
0C00
1800
1F80
1800
1800
3000
3040
3080
FF80
ENDCHAR

STARTCHAR Edieresis
ENCODING 203
SWIDTH 611 0
DWIDTH 10 0
BBX 11 15 -1 0
BITMAP
0CC0
0CC0
0000
3FE0
0C20
0C20
0C00
1800
1F80
1800
1800
3000
3040
3080
FF80
ENDCHAR

STARTCHAR Igrave
ENCODING 204
SWIDTH 389 0
DWIDTH 7 0
BBX 8 15 0 0
BITMAP
18
0C
00
3F
0C
0C
0C
18
18
18
18
30
30
30
FC
ENDCHAR

STARTCHAR Iacute
ENCODING 205
SWIDTH 389 0
DWIDTH 7 0
BBX 8 15 0 0
BITMAP
06
0C
00
3F
0C
0C
0C
18
18
18
18
30
30
30
FC
ENDCHAR

STARTCHAR Icircumflex
ENCODING 206
SWIDTH 389 0
DWIDTH 7 0
BBX 8 15 0 0
BITMAP
0E
1B
00
3F
0C
0C
0C
18
18
18
18
30
30
30
FC
ENDCHAR

STARTCHAR Idieresis
ENCODING 207
SWIDTH 389 0
DWIDTH 7 0
BBX 9 15 0 0
BITMAP
1980
1980
0000
3F00
0C00
0C00
0C00
1800
1800
1800
1800
3000
3000
3000
FC00
ENDCHAR

STARTCHAR Gbreve
ENCODING 208
SWIDTH 778 0
DWIDTH 13 0
BBX 11 15 1 0
BITMAP
0660
03C0
0000
07E0
1820
3020
6000
6000
C000
C000
C3E0
C0C0
C0C0
6080
1F00
ENDCHAR

STARTCHAR Ntilde
ENCODING 209
SWIDTH 778 0
DWIDTH 13 0
BBX 15 15 -1 0
BITMAP
00D0
0160
0000
3C3E
0C08
0E08
0E08
1710
1310
1190
11D0
20E0
2060
2060
F820
ENDCHAR

STARTCHAR Ograve
ENCODING 210
SWIDTH 833 0
DWIDTH 14 0
BBX 12 15 1 0
BITMAP
0600
0300
0000
07C0
1860
3020
6030
6030
C030
C030
C060
C060
40C0
6180
3E00
ENDCHAR

STARTCHAR Oacute
ENCODING 211
SWIDTH 833 0
DWIDTH 14 0
BBX 12 15 1 0
BITMAP
00C0
0180
0000
07C0
1860
3020
6030
6030
C030
C030
C060
C060
40C0
6180
3E00
ENDCHAR

STARTCHAR Ocircumflex
ENCODING 212
SWIDTH 833 0
DWIDTH 14 0
BBX 12 15 1 0
BITMAP
01C0
0360
0000
07C0
1860
3020
6030
6030
C030
C030
C060
C060
40C0
6180
3E00
ENDCHAR

STARTCHAR Otilde
ENCODING 213
SWIDTH 833 0
DWIDTH 14 0
BBX 12 15 1 0
BITMAP
0340
0580
0000
07C0
1860
3020
6030
6030
C030
C030
C060
C060
40C0
6180
3E00
ENDCHAR

STARTCHAR Odieresis
ENCODING 214
SWIDTH 833 0
DWIDTH 14 0
BBX 12 15 1 0
BITMAP
0660
0660
0000
07C0
1860
3020
6030
6030
C030
C030
C060
C060
40C0
6180
3E00
ENDCHAR

STARTCHAR multiply
ENCODING 215
SWIDTH 606 0
DWIDTH 10 0
BBX 7 6 2 3
BITMAP
C6
6C
38
38
6C
C6
ENDCHAR

STARTCHAR Oslash
ENCODING 216
SWIDTH 833 0
DWIDTH 14 0
BBX 12 12 1 0
BITMAP
07D0
1860
3060
60B0
6130
C230
C230
C460
C860
70C0
6180
BE00
ENDCHAR

STARTCHAR Ugrave
ENCODING 217
SWIDTH 778 0
DWIDTH 13 0
BBX 14 15 1 0
BITMAP
0600
0300
0000
F0FC
3030
3030
3030
6060
6060
6060
C060
C0C0
C1C0
62C0
3CF0
ENDCHAR

STARTCHAR Uacute
ENCODING 218
SWIDTH 778 0
DWIDTH 13 0
BBX 14 15 1 0
BITMAP
0180
0300
0000
F0FC
3030
3030
3030
6060
6060
6060
C060
C0C0
C1C0
62C0
3CF0
ENDCHAR

STARTCHAR Ucircumflex
ENCODING 219
SWIDTH 778 0
DWIDTH 13 0
BBX 14 15 1 0
BITMAP
0380
06C0
0000
F0FC
3030
3030
3030
6060
6060
6060
C060
C0C0
C1C0
62C0
3CF0
ENDCHAR

STARTCHAR Udieresis
ENCODING 220
SWIDTH 778 0
DWIDTH 13 0
BBX 14 15 1 0
BITMAP
0660
0660
0000
F0FC
3030
3030
3030
6060
6060
6060
C060
C0C0
C1C0
62C0
3CF0
ENDCHAR

STARTCHAR Idotaccent
ENCODING 221
SWIDTH 389 0
DWIDTH 7 0
BBX 8 15 0 0
BITMAP
06
06
00
3F
0C
0C
0C
18
18
18
18
30
30
30
FC
ENDCHAR

STARTCHAR Scedilla
ENCODING 222
SWIDTH 556 0
DWIDTH 9 0
BBX 9 15 0 -3
BITMAP
1F80
2080
6080
6000
7000
3C00
1E00
0700
0300
8300
8200
FC00
1800
0C00
3800
ENDCHAR

STARTCHAR germandbls
ENCODING 223
SWIDTH 556 0
DWIDTH 9 0
BBX 12 18 -2 -5
BITMAP
01E0
0230
0630
0630
0C60
0C40
3C80
0D80
18C0
1860
1860
1A60
1BC0
3000
3000
2000
6000
C000
ENDCHAR

STARTCHAR agrave
ENCODING 224
SWIDTH 556 0
DWIDTH 9 0
BBX 8 11 1 0
BITMAP
18
0C
00
1B
27
66
46
CE
CC
D5
62
ENDCHAR

STARTCHAR aacute
ENCODING 225
SWIDTH 556 0
DWIDTH 9 0
BBX 8 11 1 0
BITMAP
06
0C
00
1B
27
66
46
CE
CC
D5
62
ENDCHAR

STARTCHAR acircumflex
ENCODING 226
SWIDTH 556 0
DWIDTH 9 0
BBX 8 11 1 0
BITMAP
0E
1B
00
1B
27
66
46
CE
CC
D5
62
ENDCHAR

STARTCHAR atilde
ENCODING 227
SWIDTH 556 0
DWIDTH 9 0
BBX 8 11 1 0
BITMAP
0D
16
00
1B
27
66
46
CE
CC
D5
62
ENDCHAR

STARTCHAR adieresis
ENCODING 228
SWIDTH 556 0
DWIDTH 9 0
BBX 9 11 1 0
BITMAP
1980
1980
0000
1B00
2700
6600
4600
CE00
CC00
D500
6200
ENDCHAR

STARTCHAR aring
ENCODING 229
SWIDTH 556 0
DWIDTH 9 0
BBX 8 12 1 0
BITMAP
06
09
06
00
1B
27
66
46
CE
CC
D5
62
ENDCHAR

STARTCHAR ae
ENCODING 230
SWIDTH 738 0
DWIDTH 13 0
BBX 12 8 0 0
BITMAP
3CE0
4730
0620
1FC0
6600
C600
CA20
71C0
ENDCHAR

STARTCHAR ccedilla
ENCODING 231
SWIDTH 444 0
DWIDTH 8 0
BBX 7 11 1 -3
BITMAP
1E
22
62
C0
C0
C0
C4
78
30
18
70
ENDCHAR

STARTCHAR egrave
ENCODING 232
SWIDTH 444 0
DWIDTH 8 0
BBX 7 11 1 0
BITMAP
30
18
00
1C
26
66
6C
F0
C0
C4
78
ENDCHAR

STARTCHAR eacute
ENCODING 233
SWIDTH 444 0
DWIDTH 8 0
BBX 7 11 1 0
BITMAP
0C
18
00
1C
26
66
6C
F0
C0
C4
78
ENDCHAR

STARTCHAR ecircumflex
ENCODING 234
SWIDTH 444 0
DWIDTH 8 0
BBX 8 11 1 0
BITMAP
0E
1B
00
1C
26
66
6C
F0
C0
C4
78
ENDCHAR

STARTCHAR edieresis
ENCODING 235
SWIDTH 444 0
DWIDTH 8 0
BBX 8 11 1 0
BITMAP
33
33
00
1C
26
66
6C
F0
C0
C4
78
ENDCHAR

STARTCHAR igrave
ENCODING 236
SWIDTH 333 0
DWIDTH 5 0
BBX 4 11 1 0
BITMAP
60
30
00
20
E0
60
60
C0
C0
D0
60
ENDCHAR

STARTCHAR iacute
ENCODING 237
SWIDTH 333 0
DWIDTH 5 0
BBX 5 11 1 0
BITMAP
18
30
00
20
E0
60
60
C0
C0
D0
60
ENDCHAR

STARTCHAR icircumflex
ENCODING 238
SWIDTH 333 0
DWIDTH 5 0
BBX 6 11 1 0
BITMAP
38
6C
00
20
E0
60
60
C0
C0
D0
60
ENDCHAR

STARTCHAR idieresis
ENCODING 239
SWIDTH 333 0
DWIDTH 5 0
BBX 6 11 1 0
BITMAP
CC
CC
00
20
E0
60
60
C0
C0
D0
60
ENDCHAR

STARTCHAR gbreve
ENCODING 240
SWIDTH 500 0
DWIDTH 9 0
BBX 10 16 0 -5
BITMAP
0CC0
0780
0000
0740
1980
3180
3180
3300
1C00
0800
1C00
6200
C300
C300
C600
7800
ENDCHAR

STARTCHAR ntilde
ENCODING 241
SWIDTH 556 0
DWIDTH 9 0
BBX 8 11 1 0
BITMAP
1A
2C
00
2C
F6
66
66
CC
CC
CD
C6
ENDCHAR

STARTCHAR ograve
ENCODING 242
SWIDTH 556 0
DWIDTH 9 0
BBX 8 11 1 0
BITMAP
18
0C
00
1E
23
63
C3
C3
C6
C4
78
ENDCHAR

STARTCHAR oacute
ENCODING 243
SWIDTH 556 0
DWIDTH 9 0
BBX 8 11 1 0
BITMAP
06
0C
00
1E
23
63
C3
C3
C6
C4
78
ENDCHAR

STARTCHAR ocircumflex
ENCODING 244
SWIDTH 556 0
DWIDTH 9 0
BBX 8 11 1 0
BITMAP
0E
1B
00
1E
23
63
C3
C3
C6
C4
78
ENDCHAR

STARTCHAR otilde
ENCODING 245
SWIDTH 556 0
DWIDTH 9 0
BBX 8 11 1 0
BITMAP
0D
16
00
1E
23
63
C3
C3
C6
C4
78
ENDCHAR

STARTCHAR odieresis
ENCODING 246
SWIDTH 556 0
DWIDTH 9 0
BBX 9 11 1 0
BITMAP
1980
1980
0000
1E00
2300
6300
C300
C300
C600
C400
7800
ENDCHAR

STARTCHAR divide
ENCODING 247
SWIDTH 606 0
DWIDTH 10 0
BBX 8 8 1 2
BITMAP
18
18
00
FF
FF
00
18
18
ENDCHAR

STARTCHAR oslash
ENCODING 248
SWIDTH 556 0
DWIDTH 9 0
BBX 8 8 1 0
BITMAP
1D
27
6B
CB
D3
D6
E4
B8
ENDCHAR

STARTCHAR ugrave
ENCODING 249
SWIDTH 556 0
DWIDTH 9 0
BBX 9 11 0 0
BITMAP
1800
0C00
0000
6300
B300
3300
3300
6600
6600
6E80
3700
ENDCHAR

STARTCHAR uacute
ENCODING 250
SWIDTH 556 0
DWIDTH 9 0
BBX 9 11 0 0
BITMAP
0600
0C00
0000
6300
B300
3300
3300
6600
6600
6E80
3700
ENDCHAR

STARTCHAR ucircumflex
ENCODING 251
SWIDTH 556 0
DWIDTH 9 0
BBX 9 11 0 0
BITMAP
0E00
1B00
0000
6300
B300
3300
3300
6600
6600
6E80
3700
ENDCHAR

STARTCHAR udieresis
ENCODING 252
SWIDTH 556 0
DWIDTH 9 0
BBX 9 11 0 0
BITMAP
3300
3300
0000
6300
B300
3300
3300
6600
6600
6E80
3700
ENDCHAR

STARTCHAR dotlessi
ENCODING 253
SWIDTH 333 0
DWIDTH 5 0
BBX 4 8 1 0
BITMAP
20
E0
60
60
C0
C0
D0
60
ENDCHAR

STARTCHAR scedilla
ENCODING 254
SWIDTH 444 0
DWIDTH 8 0
BBX 7 11 1 -3
BITMAP
1E
22
60
78
3C
0C
88
F0
60
30
E0
ENDCHAR

STARTCHAR ydieresis
ENCODING 255
SWIDTH 556 0
DWIDTH 9 0
BBX 9 16 0 -5
BITMAP
3300
3300
0000
6180
B180
3300
3300
6300
6600
6E00
3600
0400
0C00
8800
9000
6000
ENDCHAR
ENDFONT
